<svg xmlns="http://www.w3.org/2000/svg" viewBox="0 0 92 132" width="16" height="22">
  <!-- Google Maps logo pin shape -->
  <path d="M46 0C20.6 0 0 20.6 0 46c0 31.8 41.3 83.1 43.1 85.3a3.8 3.8 0 0 0 5.8 0C50.7 129.1 92 77.8 92 46 92 20.6 71.4 0 46 0z" fill="#EA4335"/>
  <path d="M46 0C20.6 0 0 20.6 0 46c0 31.8 41.3 83.1 43.1 85.3l.9 1.1V70.6C33.3 68.1 25 58.1 25 46c0-11.6 6.3-21.7 15.6-27.2L46 25.5V0z" fill="#C5221F"/>
  <circle cx="46" cy="46" r="18" fill="#fff"/>
  <!-- Google G shape inside -->
  <path d="M55 46h-9v-4h13c.2 1.3.3 2.6.3 4 0 8.3-5.6 14.2-13.8 14.2-7.9 0-14.5-6.5-14.5-14.2S37.6 31.8 45.5 31.8c3.9 0 7.1 1.4 9.6 3.7l-3.9 3.8c-1.6-1.5-3.5-2.3-5.7-2.3-4.7 0-8.5 3.9-8.5 8.8s3.8 8.8 8.5 8.8c4.1 0 6.8-2.3 7.7-5.6z" fill="#1A73E8"/>
</svg>
